<?xml version="1.0" encoding="UTF-8"?><svg id="_Слой_1" xmlns="http://www.w3.org/2000/svg" width="622.4" height="89.8" viewBox="0 0 622.4 89.8"><defs><style>.cls-1{fill:#ffc012;}.cls-1,.cls-2{stroke-width:0px;}.cls-2{fill:#fff;}</style></defs><path class="cls-2" d="M19.2,1.3l18.5,16.2L0,88.5h22.6l7.7-16.4h27.9l2.1,16.4h21.3L65.5,1.3H19.2ZM38,56l14.3-30.1,3.8,30.1h-18.1Z"/><polygon class="cls-2" points="157.8 1.3 87 1.3 84.1 17.5 109.1 17.5 96.8 88.5 117.3 88.5 129.6 17.5 155 17.5 157.8 1.3"/><polygon class="cls-2" points="214.5 1.3 208.6 35.9 178.6 35.9 184.6 1.3 164.1 1.3 149 88.5 169.5 88.5 175.8 52.1 205.7 52.1 199.4 88.5 219.8 88.5 235 1.3 214.5 1.3"/><polygon class="cls-2" points="270.5 1.3 249.9 1.3 234.8 88.5 290.8 88.5 293.7 72.3 258.1 72.3 270.5 1.3"/><polygon class="cls-2" points="445.2 1.3 374.3 1.3 371.4 17.5 396.4 17.5 384.1 88.5 404.6 88.5 416.9 17.5 442.3 17.5 445.2 1.3"/><polygon class="cls-2" points="437 88.5 457.5 88.5 472.6 1.3 452.1 1.3 437 88.5"/><path class="cls-2" d="M517.8,69.8c-2.9,2.5-6.7,3.7-11.6,3.6-7.5-.3-11.1-5.3-10.9-15.2,0-3.3.5-8.8,1.6-16.6,2.4-17.1,8.9-25.5,19.7-25.2,4.3.2,7.5,1.4,9.5,3.7,2,2.3,3,6.1,2.9,11.4h20.4c-.5-9.7-3.5-17.3-9-22.9-5.5-5.6-13.1-8.4-22.6-8.6-6.5-.1-12.4,1.2-17.9,4-5.5,2.8-10.2,7.1-14.2,12.7-4,5.7-6.9,12.3-8.7,19.9-1.8,7.6-2.5,14.7-2.1,21.2.5,9.7,3.3,17.4,8.6,23.1,5.2,5.7,12.4,8.6,21.5,8.8,6.6.1,12.8-1.1,18.5-3.7,5.7-2.6,10.3-6.2,13.8-11,3.5-4.8,5.5-10.2,6-16.3l-20,.2c-.8,4.6-2.6,8.2-5.5,10.8Z"/><path class="cls-2" d="M602,41.6c-3-1.8-7.9-4-14.6-6.6-6.7-2.6-9.7-5.8-8.9-9.8.5-2.8,2-5.1,4.7-6.8,2.6-1.7,5.7-2.5,9.1-2.4,3.5,0,6,1.1,7.6,3.1,1.5,2,2.2,4.7,2.1,8.1h20.4c0-8.2-2.5-14.7-7.8-19.6-5.3-4.9-12.2-7.4-20.8-7.6-6.4,0-12.4.9-17.8,3.1-5.4,2.1-9.7,5.1-12.8,8.9-3.1,3.8-4.8,8.2-5,13-.7,10.7,5.9,19.1,19.7,25.3l9.8,4.1c5.8,2.5,8.2,6,7.3,10.5-.5,2.8-1.9,5-4.2,6.6-2.3,1.6-5.2,2.4-8.6,2.4s-7.9-1.1-9.9-3.4c-2-2.3-2.8-5.7-2.6-10.2h-20.6c-.2,8.7,2.6,15.8,8.4,21.2,2.9,2.7,6.3,4.7,10.4,6.1,4,1.4,8.4,2.1,13.1,2.2,6.4,0,12.2-.9,17.4-3,5.2-2.1,9.2-5,12.1-8.8,2.9-3.8,4.5-8.2,4.9-13.2.6-9.7-3.9-17.4-13.4-23.1Z"/><polygon class="cls-2" points="355.5 51.5 358.2 35.9 326 35.9 328.6 21.4 308 21.4 296.4 88.5 354.9 88.5 357.7 72.3 319.7 72.3 323.4 51.5 355.5 51.5"/><polygon class="cls-1" points="367.3 17.5 370.1 1.3 290.3 1.3 308.7 17.5 367.3 17.5"/></svg>